<svg xmlns="http://www.w3.org/2000/svg" xmlns:xlink="http://www.w3.org/1999/xlink" width="800" zoomAndPan="magnify" viewBox="0 0 600 225" height="300" preserveAspectRatio="xMidYMid meet" version="1.0"><defs><g/><clipPath id="33ce894009"><rect x="0" width="388" y="0" height="127"/></clipPath><clipPath id="c63147ff6c"><rect x="0" width="342" y="0" height="123"/></clipPath></defs><path fill="currentColor" d="M 202.613281 81.714844 C 225.730469 95.148438 188.367188 116.574219 188.453125 89.835938 C 188.375 116.566406 151.140625 94.925781 174.332031 81.625 C 151.140625 94.925781 151.265625 51.847656 174.375 65.289062 C 151.261719 51.855469 188.625 30.429688 188.550781 57.167969 C 188.625 30.433594 225.863281 52.078125 202.671875 65.378906 C 225.851562 52.078125 225.726562 95.148438 202.613281 81.714844 Z M 202.613281 81.714844 " fill-opacity="1" fill-rule="nonzero"/><path fill="currentColor" d="M 189.015625 62.902344 C 189.199219 62.902344 189.351562 62.964844 189.480469 63.09375 C 189.609375 63.222656 189.675781 63.378906 189.675781 63.558594 L 189.675781 68.183594 C 189.675781 68.363281 189.609375 68.519531 189.480469 68.648438 C 189.351562 68.777344 189.199219 68.839844 189.015625 68.839844 C 188.835938 68.839844 188.679688 68.777344 188.550781 68.648438 C 188.425781 68.519531 188.359375 68.363281 188.359375 68.183594 L 188.359375 63.558594 C 188.359375 63.378906 188.425781 63.222656 188.550781 63.09375 C 188.679688 62.964844 188.835938 62.902344 189.015625 62.902344 Z M 189.015625 62.902344 " fill-opacity="1" fill-rule="nonzero"/><path fill="currentColor" d="M 181.363281 65.632812 C 181.492188 65.507812 181.644531 65.441406 181.828125 65.441406 C 182.007812 65.441406 182.164062 65.507812 182.292969 65.636719 L 185.5625 68.902344 C 185.691406 69.03125 185.753906 69.1875 185.753906 69.371094 C 185.753906 69.550781 185.691406 69.707031 185.5625 69.832031 C 185.433594 69.960938 185.277344 70.027344 185.097656 70.027344 C 184.917969 70.027344 184.761719 69.960938 184.632812 69.832031 L 181.363281 66.5625 C 181.234375 66.4375 181.171875 66.28125 181.171875 66.097656 C 181.171875 65.917969 181.234375 65.761719 181.363281 65.632812 Z M 181.363281 65.632812 " fill-opacity="1" fill-rule="nonzero"/><path fill="currentColor" d="M 177.886719 72.980469 C 177.886719 72.796875 177.949219 72.640625 178.078125 72.515625 C 178.207031 72.386719 178.363281 72.320312 178.542969 72.320312 L 183.167969 72.320312 C 183.347656 72.320312 183.503906 72.386719 183.632812 72.515625 C 183.761719 72.640625 183.824219 72.796875 183.824219 72.980469 C 183.824219 73.160156 183.761719 73.316406 183.632812 73.445312 C 183.503906 73.570312 183.347656 73.636719 183.167969 73.636719 L 178.542969 73.636719 C 178.363281 73.636719 178.207031 73.570312 178.078125 73.445312 C 177.949219 73.316406 177.886719 73.160156 177.886719 72.980469 Z M 177.886719 72.980469 " fill-opacity="1" fill-rule="nonzero"/><path fill="currentColor" d="M 180.621094 80.632812 C 180.492188 80.503906 180.429688 80.347656 180.429688 80.167969 C 180.429688 79.984375 180.496094 79.832031 180.621094 79.703125 L 183.890625 76.433594 C 184.019531 76.304688 184.175781 76.238281 184.355469 76.238281 C 184.539062 76.238281 184.691406 76.304688 184.820312 76.433594 C 184.949219 76.558594 185.015625 76.714844 185.015625 76.898438 C 185.015625 77.078125 184.949219 77.234375 184.820312 77.363281 L 181.550781 80.628906 C 181.421875 80.757812 181.269531 80.824219 181.085938 80.824219 C 180.90625 80.824219 180.75 80.761719 180.621094 80.632812 Z M 180.621094 80.632812 " fill-opacity="1" fill-rule="nonzero"/><path fill="currentColor" d="M 187.964844 84.109375 C 187.785156 84.109375 187.628906 84.046875 187.5 83.917969 C 187.371094 83.789062 187.308594 83.632812 187.308594 83.453125 L 187.308594 78.828125 C 187.308594 78.648438 187.371094 78.492188 187.5 78.363281 C 187.628906 78.234375 187.785156 78.171875 187.964844 78.171875 C 188.148438 78.171875 188.300781 78.234375 188.429688 78.363281 C 188.558594 78.492188 188.621094 78.648438 188.621094 78.828125 L 188.621094 83.453125 C 188.621094 83.632812 188.558594 83.789062 188.429688 83.917969 C 188.300781 84.046875 188.148438 84.109375 187.964844 84.109375 Z M 187.964844 84.109375 " fill-opacity="1" fill-rule="nonzero"/><path fill="currentColor" d="M 195.617188 81.375 C 195.488281 81.503906 195.335938 81.566406 195.152344 81.566406 C 194.972656 81.566406 194.816406 81.503906 194.6875 81.375 L 191.417969 78.105469 C 191.289062 77.976562 191.226562 77.820312 191.226562 77.640625 C 191.226562 77.457031 191.289062 77.304688 191.417969 77.175781 C 191.546875 77.046875 191.699219 76.984375 191.882812 76.984375 C 192.0625 76.984375 192.21875 77.046875 192.347656 77.175781 L 195.617188 80.445312 C 195.746094 80.574219 195.808594 80.730469 195.808594 80.910156 C 195.808594 81.09375 195.746094 81.246094 195.617188 81.375 Z M 195.617188 81.375 " fill-opacity="1" fill-rule="nonzero"/><path fill="currentColor" d="M 199.09375 74.03125 C 199.09375 74.210938 199.03125 74.367188 198.902344 74.496094 C 198.773438 74.625 198.617188 74.6875 198.4375 74.6875 L 193.8125 74.6875 C 193.632812 74.6875 193.476562 74.625 193.347656 74.496094 C 193.21875 74.367188 193.15625 74.210938 193.15625 74.03125 C 193.15625 73.847656 193.21875 73.695312 193.347656 73.566406 C 193.476562 73.4375 193.632812 73.375 193.8125 73.375 L 198.4375 73.375 C 198.617188 73.375 198.773438 73.4375 198.902344 73.566406 C 199.03125 73.695312 199.09375 73.847656 199.09375 74.03125 Z M 199.09375 74.03125 " fill-opacity="1" fill-rule="nonzero"/><path fill="currentColor" d="M 196.363281 66.378906 C 196.492188 66.507812 196.554688 66.664062 196.554688 66.84375 C 196.554688 67.027344 196.492188 67.179688 196.363281 67.308594 L 193.09375 70.578125 C 192.964844 70.707031 192.808594 70.769531 192.628906 70.769531 C 192.445312 70.769531 192.292969 70.707031 192.164062 70.578125 C 192.035156 70.449219 191.972656 70.296875 191.972656 70.113281 C 191.972656 69.933594 192.035156 69.777344 192.164062 69.648438 L 195.433594 66.378906 C 195.5625 66.25 195.714844 66.1875 195.898438 66.1875 C 196.078125 66.1875 196.234375 66.25 196.363281 66.378906 Z M 196.363281 66.378906 " fill-opacity="1" fill-rule="nonzero"/><path fill="currentColor" d="M 191.132812 73.503906 C 191.132812 73.855469 191.066406 74.191406 190.933594 74.515625 C 190.796875 74.839844 190.609375 75.125 190.359375 75.375 C 190.113281 75.621094 189.828125 75.8125 189.503906 75.945312 C 189.179688 76.082031 188.839844 76.148438 188.492188 76.148438 C 188.140625 76.148438 187.804688 76.082031 187.480469 75.945312 C 187.15625 75.8125 186.871094 75.621094 186.621094 75.375 C 186.375 75.125 186.183594 74.839844 186.050781 74.515625 C 185.914062 74.191406 185.847656 73.855469 185.847656 73.503906 C 185.847656 73.152344 185.914062 72.816406 186.050781 72.492188 C 186.183594 72.167969 186.375 71.882812 186.621094 71.636719 C 186.871094 71.386719 187.15625 71.195312 187.480469 71.0625 C 187.804688 70.929688 188.140625 70.863281 188.492188 70.863281 C 188.839844 70.863281 189.179688 70.929688 189.503906 71.0625 C 189.828125 71.195312 190.113281 71.386719 190.359375 71.636719 C 190.609375 71.882812 190.796875 72.167969 190.933594 72.492188 C 191.066406 72.816406 191.132812 73.152344 191.132812 73.503906 Z M 191.132812 73.503906 " fill-opacity="1" fill-rule="nonzero"/><g transform="matrix(1, 0, 0, 1, 45, 10)"><g clip-path="url(#33ce894009)"><g fill="currentColor" fill-opacity="1"><g transform="translate(1.718637, 91.179504)"><g><path d="M 58.84375 -44.984375 C 63.644531 -39.742188 66.046875 -33.320312 66.046875 -25.71875 C 66.046875 -18.113281 63.644531 -11.675781 58.84375 -6.40625 C 54.039062 -1.132812 47.9375 1.5 40.53125 1.5 C 33.726562 1.5 28.125 -0.632812 23.71875 -4.90625 L 23.71875 26.015625 L 6 26.015625 L 6 -51.34375 L 23.515625 -51.34375 L 23.515625 -45.53125 L 23.71875 -45.53125 C 28.125 -50.40625 33.726562 -52.84375 40.53125 -52.84375 C 47.9375 -52.84375 54.039062 -50.222656 58.84375 -44.984375 Z M 43.78125 -17.015625 C 46.082031 -19.285156 47.234375 -22.1875 47.234375 -25.71875 C 47.234375 -29.257812 46.128906 -32.144531 43.921875 -34.375 C 41.722656 -36.613281 38.828125 -37.734375 35.234375 -37.734375 C 31.753906 -37.734375 28.894531 -36.597656 26.65625 -34.328125 C 24.425781 -32.054688 23.3125 -29.1875 23.3125 -25.71875 C 23.3125 -22.1875 24.460938 -19.285156 26.765625 -17.015625 C 29.066406 -14.742188 31.890625 -13.609375 35.234375 -13.609375 C 38.628906 -13.609375 41.476562 -14.742188 43.78125 -17.015625 Z M 43.78125 -17.015625 "/></g></g></g><g fill="currentColor" fill-opacity="1"><g transform="translate(65.162744, 91.179504)"><g><path d="M 6 0 L 6 -51.34375 L 23.71875 -51.34375 L 23.71875 -43.9375 L 23.921875 -43.9375 C 24.054688 -44.195312 24.269531 -44.523438 24.5625 -44.921875 C 24.863281 -45.328125 25.515625 -46.03125 26.515625 -47.03125 C 27.515625 -48.03125 28.582031 -48.929688 29.71875 -49.734375 C 30.851562 -50.535156 32.320312 -51.253906 34.125 -51.890625 C 35.925781 -52.523438 37.757812 -52.84375 39.625 -52.84375 C 41.5625 -52.84375 43.460938 -52.570312 45.328125 -52.03125 C 47.203125 -51.5 48.570312 -50.96875 49.4375 -50.4375 L 50.84375 -49.640625 L 43.4375 -34.625 C 41.226562 -36.488281 38.160156 -37.421875 34.234375 -37.421875 C 32.097656 -37.421875 30.257812 -36.953125 28.71875 -36.015625 C 27.1875 -35.085938 26.101562 -33.957031 25.46875 -32.625 C 24.832031 -31.289062 24.378906 -30.15625 24.109375 -29.21875 C 23.847656 -28.289062 23.71875 -27.554688 23.71875 -27.015625 L 23.71875 0 Z M 6 0 "/></g></g></g><g fill="currentColor" fill-opacity="1"><g transform="translate(110.096418, 91.179504)"><g/></g></g><g fill="currentColor" fill-opacity="1"><g transform="translate(132.511706, 91.179504)"><g/></g></g><g fill="currentColor" fill-opacity="1"><g transform="translate(154.926993, 91.179504)"><g/></g></g><g fill="currentColor" fill-opacity="1"><g transform="translate(177.358115, 91.179504)"><g><path d="M 9.5 -6.359375 C 4.695312 -11.597656 2.296875 -18.019531 2.296875 -25.625 C 2.296875 -33.226562 4.695312 -39.664062 9.5 -44.9375 C 14.3125 -50.207031 20.421875 -52.84375 27.828125 -52.84375 C 34.628906 -52.84375 40.234375 -50.707031 44.640625 -46.4375 L 44.640625 -86.0625 L 62.34375 -86.0625 L 62.34375 0 L 44.828125 0 L 44.828125 -5.796875 L 44.640625 -5.796875 C 40.234375 -0.929688 34.628906 1.5 27.828125 1.5 C 20.421875 1.5 14.3125 -1.117188 9.5 -6.359375 Z M 24.5625 -34.328125 C 22.257812 -32.054688 21.109375 -29.148438 21.109375 -25.609375 C 21.109375 -22.078125 22.207031 -19.191406 24.40625 -16.953125 C 26.613281 -14.722656 29.519531 -13.609375 33.125 -13.609375 C 36.59375 -13.609375 39.441406 -14.742188 41.671875 -17.015625 C 43.910156 -19.285156 45.03125 -22.15625 45.03125 -25.625 C 45.03125 -29.15625 43.878906 -32.054688 41.578125 -34.328125 C 39.273438 -36.597656 36.457031 -37.734375 33.125 -37.734375 C 29.71875 -37.734375 26.863281 -36.597656 24.5625 -34.328125 Z M 24.5625 -34.328125 "/></g></g></g><g fill="currentColor" fill-opacity="1"><g transform="translate(240.802222, 91.179504)"><g><path d="M 22.71875 -51.34375 L 22.71875 -26.921875 C 22.71875 -21.847656 23.484375 -18.242188 25.015625 -16.109375 C 26.554688 -13.972656 29.160156 -12.90625 32.828125 -12.90625 C 36.492188 -12.90625 39.09375 -13.972656 40.625 -16.109375 C 42.164062 -18.242188 42.9375 -21.847656 42.9375 -26.921875 L 42.9375 -51.34375 L 60.640625 -51.34375 L 60.640625 -22.625 C 60.640625 -14.082031 58.421875 -7.925781 53.984375 -4.15625 C 49.554688 -0.382812 42.503906 1.5 32.828125 1.5 C 23.148438 1.5 16.09375 -0.382812 11.65625 -4.15625 C 7.21875 -7.925781 5 -14.082031 5 -22.625 L 5 -51.34375 Z M 22.71875 -51.34375 "/></g></g></g><g fill="currentColor" fill-opacity="1"><g transform="translate(301.544441, 91.179504)"><g><path d="M 33.328125 -38.328125 C 29.992188 -38.328125 27.125 -37.09375 24.71875 -34.625 C 22.3125 -32.15625 21.109375 -29.1875 21.109375 -25.71875 C 21.109375 -22.1875 22.3125 -19.1875 24.71875 -16.71875 C 27.125 -14.25 29.992188 -13.015625 33.328125 -13.015625 C 34.929688 -13.015625 36.445312 -13.210938 37.875 -13.609375 C 39.3125 -14.015625 40.363281 -14.414062 41.03125 -14.8125 L 41.9375 -15.40625 L 47.9375 -3.109375 C 47.46875 -2.773438 46.816406 -2.351562 45.984375 -1.84375 C 45.148438 -1.34375 43.25 -0.660156 40.28125 0.203125 C 37.3125 1.066406 34.125 1.5 30.71875 1.5 C 23.1875 1.5 16.566406 -1.148438 10.859375 -6.453125 C 5.148438 -11.753906 2.296875 -18.109375 2.296875 -25.515625 C 2.296875 -32.992188 5.148438 -39.414062 10.859375 -44.78125 C 16.566406 -50.15625 23.1875 -52.84375 30.71875 -52.84375 C 34.125 -52.84375 37.257812 -52.441406 40.125 -51.640625 C 43 -50.835938 45.035156 -50.035156 46.234375 -49.234375 L 47.9375 -48.03125 L 41.9375 -35.921875 C 39.726562 -37.523438 36.859375 -38.328125 33.328125 -38.328125 Z M 33.328125 -38.328125 "/></g></g></g><g fill="currentColor" fill-opacity="1"><g transform="translate(345.775057, 91.179504)"><g><path d="M 9 -51.34375 L 9 -70.453125 L 26.71875 -70.453125 L 26.71875 -51.34375 L 37.53125 -51.34375 L 37.53125 -37.828125 L 26.71875 -37.828125 L 26.71875 -21.515625 C 26.71875 -16.773438 28.050781 -14.40625 30.71875 -14.40625 C 31.382812 -14.40625 32.082031 -14.539062 32.8125 -14.8125 C 33.550781 -15.082031 34.125 -15.347656 34.53125 -15.609375 L 35.125 -16.015625 L 39.53125 -1.703125 C 35.726562 0.429688 31.390625 1.5 26.515625 1.5 C 23.179688 1.5 20.3125 0.914062 17.90625 -0.25 C 15.507812 -1.414062 13.691406 -2.984375 12.453125 -4.953125 C 11.222656 -6.921875 10.335938 -8.988281 9.796875 -11.15625 C 9.265625 -13.320312 9 -15.640625 9 -18.109375 L 9 -37.828125 L 1.59375 -37.828125 L 1.59375 -51.34375 Z M 9 -51.34375 "/></g></g></g></g></g><g transform="matrix(1, 0, 0, 1, 221, 102)"><g clip-path="url(#c63147ff6c)"><g fill="currentColor" fill-opacity="1"><g transform="translate(0.841696, 91.17497)"><g><path d="M 9.5 -6.359375 C 4.695312 -11.597656 2.296875 -18.019531 2.296875 -25.625 C 2.296875 -33.226562 4.695312 -39.664062 9.5 -44.9375 C 14.3125 -50.207031 20.421875 -52.84375 27.828125 -52.84375 C 34.628906 -52.84375 40.234375 -50.707031 44.640625 -46.4375 L 44.640625 -86.0625 L 62.34375 -86.0625 L 62.34375 0 L 44.828125 0 L 44.828125 -5.796875 L 44.640625 -5.796875 C 40.234375 -0.929688 34.628906 1.5 27.828125 1.5 C 20.421875 1.5 14.3125 -1.117188 9.5 -6.359375 Z M 24.5625 -34.328125 C 22.257812 -32.054688 21.109375 -29.148438 21.109375 -25.609375 C 21.109375 -22.078125 22.207031 -19.191406 24.40625 -16.953125 C 26.613281 -14.722656 29.519531 -13.609375 33.125 -13.609375 C 36.59375 -13.609375 39.441406 -14.742188 41.671875 -17.015625 C 43.910156 -19.285156 45.03125 -22.15625 45.03125 -25.625 C 45.03125 -29.15625 43.878906 -32.054688 41.578125 -34.328125 C 39.273438 -36.597656 36.457031 -37.734375 33.125 -37.734375 C 29.71875 -37.734375 26.863281 -36.597656 24.5625 -34.328125 Z M 24.5625 -34.328125 "/></g></g></g><g fill="currentColor" fill-opacity="1"><g transform="translate(64.285803, 91.17497)"><g><path d="M 6 0 L 6 -51.34375 L 23.71875 -51.34375 L 23.71875 -43.9375 L 23.921875 -43.9375 C 24.054688 -44.195312 24.269531 -44.523438 24.5625 -44.921875 C 24.863281 -45.328125 25.515625 -46.03125 26.515625 -47.03125 C 27.515625 -48.03125 28.582031 -48.929688 29.71875 -49.734375 C 30.851562 -50.535156 32.320312 -51.253906 34.125 -51.890625 C 35.925781 -52.523438 37.757812 -52.84375 39.625 -52.84375 C 41.5625 -52.84375 43.460938 -52.570312 45.328125 -52.03125 C 47.203125 -51.5 48.570312 -50.96875 49.4375 -50.4375 L 50.84375 -49.640625 L 43.4375 -34.625 C 41.226562 -36.488281 38.160156 -37.421875 34.234375 -37.421875 C 32.097656 -37.421875 30.257812 -36.953125 28.71875 -36.015625 C 27.1875 -35.085938 26.101562 -33.957031 25.46875 -32.625 C 24.832031 -31.289062 24.378906 -30.15625 24.109375 -29.21875 C 23.847656 -28.289062 23.71875 -27.554688 23.71875 -27.015625 L 23.71875 0 Z M 6 0 "/></g></g></g><g fill="currentColor" fill-opacity="1"><g transform="translate(109.216902, 91.17497)"><g><path d="M 7.703125 -79.953125 C 9.773438 -82.023438 12.242188 -83.0625 15.109375 -83.0625 C 17.984375 -83.0625 20.453125 -82.023438 22.515625 -79.953125 C 24.585938 -77.890625 25.625 -75.421875 25.625 -72.546875 C 25.625 -69.679688 24.585938 -67.210938 22.515625 -65.140625 C 20.453125 -63.078125 17.984375 -62.046875 15.109375 -62.046875 C 12.242188 -62.046875 9.773438 -63.078125 7.703125 -65.140625 C 5.640625 -67.210938 4.609375 -69.679688 4.609375 -72.546875 C 4.609375 -75.421875 5.640625 -77.890625 7.703125 -79.953125 Z M 6 -51.34375 L 6 0 L 23.71875 0 L 23.71875 -51.34375 Z M 6 -51.34375 "/></g></g></g><g fill="currentColor" fill-opacity="1"><g transform="translate(134.534242, 91.17497)"><g><path d="M 19.015625 -51.34375 L 31.53125 -23.421875 L 44.03125 -51.34375 L 65.046875 -51.34375 L 37.53125 0 L 25.515625 0 L -2 -51.34375 Z M 19.015625 -51.34375 "/></g></g></g><g fill="currentColor" fill-opacity="1"><g transform="translate(192.674626, 91.17497)"><g><path d="M 57.9375 -23.21875 L 20.71875 -23.21875 C 20.71875 -19.613281 21.882812 -16.941406 24.21875 -15.203125 C 26.550781 -13.472656 29.085938 -12.609375 31.828125 -12.609375 C 34.691406 -12.609375 36.957031 -12.988281 38.625 -13.75 C 40.289062 -14.519531 42.191406 -16.039062 44.328125 -18.3125 L 57.140625 -11.90625 C 51.804688 -2.96875 42.9375 1.5 30.53125 1.5 C 22.789062 1.5 16.148438 -1.148438 10.609375 -6.453125 C 5.066406 -11.753906 2.296875 -18.140625 2.296875 -25.609375 C 2.296875 -33.085938 5.066406 -39.492188 10.609375 -44.828125 C 16.148438 -50.171875 22.789062 -52.84375 30.53125 -52.84375 C 38.664062 -52.84375 45.285156 -50.488281 50.390625 -45.78125 C 55.492188 -41.082031 58.046875 -34.363281 58.046875 -25.625 C 58.046875 -24.414062 58.007812 -23.613281 57.9375 -23.21875 Z M 21.21875 -33.03125 L 40.734375 -33.03125 C 40.328125 -35.695312 39.273438 -37.742188 37.578125 -39.171875 C 35.878906 -40.609375 33.695312 -41.328125 31.03125 -41.328125 C 28.09375 -41.328125 25.753906 -40.5625 24.015625 -39.03125 C 22.285156 -37.5 21.351562 -35.5 21.21875 -33.03125 Z M 21.21875 -33.03125 "/></g></g></g><g fill="currentColor" fill-opacity="1"><g transform="translate(248.113101, 91.17497)"><g><path d="M 6 0 L 6 -51.34375 L 23.71875 -51.34375 L 23.71875 -43.9375 L 23.921875 -43.9375 C 24.054688 -44.195312 24.269531 -44.523438 24.5625 -44.921875 C 24.863281 -45.328125 25.515625 -46.03125 26.515625 -47.03125 C 27.515625 -48.03125 28.582031 -48.929688 29.71875 -49.734375 C 30.851562 -50.535156 32.320312 -51.253906 34.125 -51.890625 C 35.925781 -52.523438 37.757812 -52.84375 39.625 -52.84375 C 41.5625 -52.84375 43.460938 -52.570312 45.328125 -52.03125 C 47.203125 -51.5 48.570312 -50.96875 49.4375 -50.4375 L 50.84375 -49.640625 L 43.4375 -34.625 C 41.226562 -36.488281 38.160156 -37.421875 34.234375 -37.421875 C 32.097656 -37.421875 30.257812 -36.953125 28.71875 -36.015625 C 27.1875 -35.085938 26.101562 -33.957031 25.46875 -32.625 C 24.832031 -31.289062 24.378906 -30.15625 24.109375 -29.21875 C 23.847656 -28.289062 23.71875 -27.554688 23.71875 -27.015625 L 23.71875 0 Z M 6 0 "/></g></g></g><g fill="currentColor" fill-opacity="1"><g transform="translate(293.044201, 91.17497)"><g><path d="M 28.328125 -52.84375 C 31.253906 -52.84375 34.148438 -52.507812 37.015625 -51.84375 C 39.890625 -51.175781 42.03125 -50.507812 43.4375 -49.84375 L 45.53125 -48.84375 L 39.734375 -37.234375 C 35.722656 -39.367188 31.921875 -40.4375 28.328125 -40.4375 C 26.316406 -40.4375 24.894531 -40.21875 24.0625 -39.78125 C 23.226562 -39.34375 22.8125 -38.523438 22.8125 -37.328125 C 22.8125 -37.054688 22.84375 -36.785156 22.90625 -36.515625 C 22.976562 -36.253906 23.113281 -36.003906 23.3125 -35.765625 C 23.519531 -35.535156 23.707031 -35.335938 23.875 -35.171875 C 24.039062 -35.003906 24.320312 -34.820312 24.71875 -34.625 C 25.113281 -34.425781 25.425781 -34.273438 25.65625 -34.171875 C 25.894531 -34.078125 26.28125 -33.925781 26.8125 -33.71875 C 27.351562 -33.519531 27.753906 -33.367188 28.015625 -33.265625 C 28.285156 -33.171875 28.738281 -33.023438 29.375 -32.828125 C 30.007812 -32.628906 30.492188 -32.492188 30.828125 -32.421875 C 32.890625 -31.828125 34.6875 -31.160156 36.21875 -30.421875 C 37.757812 -29.691406 39.378906 -28.691406 41.078125 -27.421875 C 42.785156 -26.148438 44.101562 -24.546875 45.03125 -22.609375 C 45.96875 -20.679688 46.4375 -18.484375 46.4375 -16.015625 C 46.4375 -4.335938 38.332031 1.5 22.125 1.5 C 18.445312 1.5 14.957031 0.929688 11.65625 -0.203125 C 8.351562 -1.335938 5.96875 -2.472656 4.5 -3.609375 L 2.296875 -5.40625 L 9.5 -17.515625 C 10.039062 -17.046875 10.742188 -16.492188 11.609375 -15.859375 C 12.472656 -15.222656 14.039062 -14.351562 16.3125 -13.25 C 18.582031 -12.15625 20.550781 -11.609375 22.21875 -11.609375 C 25.882812 -11.609375 27.71875 -12.84375 27.71875 -15.3125 C 27.71875 -16.445312 27.25 -17.332031 26.3125 -17.96875 C 25.382812 -18.601562 23.800781 -19.316406 21.5625 -20.109375 C 19.332031 -20.910156 17.582031 -21.644531 16.3125 -22.3125 C 13.113281 -23.976562 10.578125 -25.863281 8.703125 -27.96875 C 6.835938 -30.070312 5.90625 -32.859375 5.90625 -36.328125 C 5.90625 -41.535156 7.921875 -45.585938 11.953125 -48.484375 C 15.992188 -51.390625 21.453125 -52.84375 28.328125 -52.84375 Z M 28.328125 -52.84375 "/></g></g></g></g></g></svg>
